<svg id="Capa_1" data-name="Capa 1" xmlns="http://www.w3.org/2000/svg" viewBox="0 0 350 350" width="350" height="350"><defs><style>.cls-1 {
        fill: #33709F;
      }

      .cls-1, .cls-2 {
        stroke-width: 0px;
      }

      .cls-2 {
        fill: #33709F;
      }</style></defs><g><path class="cls-1" d="M171.145 114.743v-3.741h-37.585c-0.247 -0.352 -0.383 -0.451 -0.383 -0.549 -0.006 -6.377 -0.278 -12.767 0.062 -19.126 0.475 -8.927 5.501 -15.144 12.928 -19.583 6.458 -3.852 13.613 -5.532 21.003 -6.13 9.551 -0.778 19.058 -0.5 28.306 2.402 7.322 2.297 13.712 5.97 17.953 12.662 2.315 3.649 3.439 7.649 3.445 11.958 0.019 6.624 0.019 13.255 0.031 19.879v2.229c4.772 0 9.347 -0.136 13.903 0.043 3.933 0.154 8.007 0.093 11.742 1.124 8.378 2.321 13.712 8.371 16.496 16.335 5.013 14.347 5.173 28.855 -0.84 42.95 -4.42 10.353 -12.545 15.718 -24.052 15.662 -17.582 -0.08 -35.171 -0.031 -52.753 -0.043h-2.488v3.815h37.554c0.228 0.303 0.364 0.401 0.364 0.5 0 6.501 0.358 13.026 -0.086 19.496 -0.661 9.631 -6.495 15.879 -14.668 20.212 -5.828 3.087 -12.168 4.519 -18.669 5.075 -10.112 0.864 -20.175 0.58 -29.911 -2.741 -7.668 -2.618 -14.119 -6.847 -17.971 -14.298 -1.624 -3.136 -2.402 -6.476 -2.402 -10.001 0 -6.686 -0.043 -13.378 0.031 -20.064 0.019 -1.5 -0.358 -2.05 -1.951 -2.013 -4.951 0.099 -9.909 -0.111 -14.86 0.068 -12.693 0.463 -21.422 -6.871 -25.04 -16.743 -5.593 -15.249 -5.76 -30.627 1.352 -45.45 4.402 -9.174 12.156 -13.921 22.527 -13.928 17.959 -0.006 35.912 0 53.871 0h2.087Zm-38.023 68.422c0 -4.883 0.093 -9.588 -0.019 -14.292 -0.259 -10.964 8.649 -20.151 20.114 -19.941 14.613 0.265 29.232 0.074 43.845 0.062 7.408 -0.006 12.156 -4.797 12.156 -12.23 0 -14.681 -0.025 -29.362 0.012 -44.036 0.012 -4.056 -1.401 -7.47 -4.099 -10.433 -3.056 -3.346 -6.921 -5.39 -11.15 -6.748 -9.248 -2.97 -18.731 -3.186 -28.294 -2.081 -6.087 0.704 -11.927 2.266 -17.058 5.76 -4.309 2.939 -7.452 6.772 -7.76 12.23 -0.204 3.581 -0.062 7.18 -0.056 10.773 0 0.346 0.136 0.685 0.247 1.204h37.634v18.891h-2.284c-20.064 0 -40.128 0.123 -60.193 -0.056 -8.439 -0.074 -13.946 3.859 -17.416 11.156 -3.593 7.556 -3.982 15.65 -3.537 23.805 0.303 5.532 1.383 10.933 4.013 15.897 2.914 5.507 7.118 9.588 13.582 9.958 6.655 0.377 13.347 0.086 20.262 0.086Zm38.19 0.08h2.408c20.373 0 40.746 -0.031 61.112 0.019 6.223 0.012 10.958 -2.593 14.415 -7.655 3.599 -5.272 4.97 -11.285 5.433 -17.521 0.624 -8.476 0.247 -16.879 -3.476 -24.725 -3.42 -7.217 -8.896 -11.384 -17.268 -11.069 -4.204 0.154 -8.421 0.025 -12.631 0.025h-4.408c0 4.957 0.012 9.711 0 14.465 -0.043 11.569 -8.248 19.774 -19.768 19.774H153.291c-7.692 0 -12.458 4.667 -12.477 12.31 -0.031 14.675 0.019 29.355 -0.025 44.036 -0.012 3.303 1.006 6.198 2.926 8.804 3.186 4.322 7.661 6.766 12.631 8.359 9.192 2.945 18.62 3.161 28.108 2.037 5.816 -0.691 11.415 -2.179 16.422 -5.396 3.821 -2.457 7.106 -5.606 7.822 -10.149 0.728 -4.643 0.506 -9.433 0.71 -14.366h-38.103v-18.953Z"/><path class="cls-1" d="M163.545 91.888c0 4.204 -3.284 7.575 -7.452 7.631s-7.791 -3.519 -7.723 -7.618c0.074 -4.297 3.414 -7.581 7.717 -7.581 4.192 0 7.452 3.309 7.458 7.563Z"/><path class="cls-1" d="M194.005 221.256c-4.346 -0.056 -7.594 -3.383 -7.526 -7.698 0.068 -4.173 3.525 -7.581 7.6 -7.495 4.291 0.093 7.643 3.5 7.6 7.736 -0.043 4.087 -3.562 7.507 -7.668 7.458Z"/></g><g><path class="cls-2" d="M131.924 270.212a1.729 1.729 0 0 1 1.716 -1.716h3.852c3.118 0 5.272 2.272 5.272 5.044s-2.155 5.044 -5.272 5.044h-0.068c-0.895 0 -1.605 -0.71 -1.605 -1.605s0.71 -1.605 1.605 -1.605c0.988 -0.025 1.79 -0.827 1.79 -1.834s-0.827 -1.834 -1.834 -1.834h-2.019v11.341c0 0.938 -0.778 1.716 -1.716 1.716s-1.716 -0.778 -1.716 -1.716v-12.835Z"/><path class="cls-2" d="m148.697 277.158 -5.087 -6.075c-0.296 -0.364 -0.389 -0.735 -0.389 -1.124 0 -0.963 0.753 -1.698 1.698 -1.698 0.506 0 0.988 0.204 1.327 0.617l4.241 5.044 4.284 -5.087c0.296 -0.364 0.803 -0.574 1.235 -0.574 0.92 0 1.605 0.735 1.605 1.605 0 0.414 -0.117 0.735 -0.364 1.031l-5.112 6.093v6.05c0 0.938 -0.778 1.716 -1.716 1.716s-1.716 -0.778 -1.716 -1.716v-5.89Z"/><path class="cls-2" d="M162.446 271.7h-2.544c-0.895 0 -1.605 -0.71 -1.605 -1.605s0.71 -1.605 1.605 -1.605h8.526c0.895 0 1.605 0.71 1.605 1.605s-0.71 1.605 -1.605 1.605h-2.544v11.341c0 0.938 -0.778 1.716 -1.716 1.716s-1.716 -0.778 -1.716 -1.716V271.7Z"/><path class="cls-2" d="M171.632 269.984c0 -0.938 0.778 -1.716 1.716 -1.716s1.716 0.778 1.716 1.716v4.927h5.501v-4.927c0 -0.938 0.778 -1.716 1.716 -1.716s1.716 0.778 1.716 1.716v13.063c0 0.938 -0.778 1.716 -1.716 1.716s-1.716 -0.778 -1.716 -1.716v-4.927h-5.501v4.927c0 0.938 -0.778 1.716 -1.716 1.716s-1.716 -0.778 -1.716 -1.716z"/><path class="cls-2" d="M186.295 276.516c0 -4.606 3.642 -8.248 8.273 -8.248s8.273 3.642 8.273 8.248 -3.642 8.248 -8.273 8.248 -8.273 -3.642 -8.273 -8.248m12.995 0c0 -2.747 -2.087 -4.927 -4.723 -4.927s-4.723 2.179 -4.723 4.927 2.087 4.927 4.723 4.927 4.723 -2.179 4.723 -4.927"/><path class="cls-2" d="M205.13 270.077c0 -1.006 0.778 -1.809 1.79 -1.809 0.574 0 1.099 0.272 1.377 0.617l6.346 7.587v-6.482c0 -0.938 0.778 -1.716 1.716 -1.716s1.716 0.778 1.716 1.716v13.063c0 0.938 -0.778 1.716 -1.716 1.716s-1.716 -0.778 -1.716 -1.716v-1.235l-6.075 -7.242v8.476c0 0.938 -0.778 1.716 -1.716 1.716s-1.716 -0.778 -1.716 -1.716v-12.971Z"/></g></svg>