<?xml version="1.0" encoding="UTF-8"?>
<svg id="Capa_1" data-name="Capa 1" xmlns="http://www.w3.org/2000/svg" viewBox="0 0 262.71 332.82">
  <defs>
    <style>
      .cls-1 {
        fill: #1d1d1b;
        stroke-width: 0px;
      }
    </style>
  </defs>
  <path class="cls-1" d="M163.98,306.02c-75.85,0-137.57-62.63-137.57-139.61S88.13,26.78,163.98,26.78c14.4,0,28.75,2.33,42.39,6.81-40.72,31.16-65.18,80.02-65.18,132.82s24.46,101.65,65.18,132.82c-13.64,4.47-27.99,6.79-42.39,6.79M163.98,0C73.56,0,0,74.65,0,166.41s73.56,166.41,163.98,166.41c26.71,0,53.26-6.7,76.78-19.38l21.95-11.84-21.95-11.82c-45.13-24.31-73.17-71.59-73.17-123.37s28.04-99.06,73.17-123.37l21.95-11.84-21.95-11.82C217.24,6.7,190.69,0,163.98,0"/>
</svg>