<svg id="Capa_1" data-name="Capa 1" xmlns="http://www.w3.org/2000/svg" viewBox="0 0 350 350" width="350" height="350"><defs><style>.cls-1 {
        fill: #512BD4;
      }

      .cls-1, .cls-2 {
        stroke-width: 0px;
      }

      .cls-2 {
        fill: #512BD4;
      }</style></defs><g><g><path class="cls-2" d="M165.286 204.038v4.081h-4.254v-4.081z"/><path class="cls-2" d="M180.701 208.118h-3.815l-4.18 -6.748c-0.537 -0.864 -1.08 -1.914 -1.624 -3.155 0.247 0.982 0.37 1.821 0.37 2.506v7.396h-3.803v-15.273h4.433l3.556 5.593c0.71 1.111 1.247 2.087 1.611 2.932 -0.241 -1.303 -0.358 -2.642 -0.358 -4.007v-4.519h3.815v15.273Z"/><path class="cls-2" d="M194.857 204.476v3.649h-11.489v-15.273h11.489v3.525h-6.89v2.216h5.569v3.389h-5.569v2.494z"/><path class="cls-2" d="M202.988 196.506v11.613h-4.439V196.506h-3.167v-3.661h10.773v3.661z"/></g><path class="cls-1" d="M249.339 116.187c0.019 -5.587 -2.173 -9.501 -6.896 -12.316 -20.367 -12.131 -40.74 -24.318 -60.557 -36.214 -4.772 -2.865 -9.211 -2.834 -13.965 0.099 -3.167 1.951 -6.414 3.877 -9.557 5.741 -1.445 0.858 -2.883 1.71 -4.322 2.574l-13.082 7.828c-11.088 6.637 -22.169 13.273 -33.276 19.873 -4.76 2.828 -6.982 6.34 -6.989 11.045 -0.049 24.589 -0.031 48.667 -0.012 75.336 0 2.957 0.833 7.007 4.785 9.476 4.062 2.537 8.458 5.136 13.44 7.945l-0.123 0.204 11.563 7.18 0.784 -1.259c0.056 0.012 0.111 0.037 0.167 0.049v-0.321l3.963 -6.384 -3.963 -2.463s-2.963 -2.192 -4.383 -2.994c-3.815 -2.155 -7.606 -4.476 -11.273 -6.723l-1.963 -1.198c-0.704 -0.432 -1.315 -0.938 -1.852 -1.383 -0.204 -0.173 -0.401 -0.34 -0.593 -0.482l-0.605 -0.469V114.168l64.372 -39.332 64.384 39.326v77.707L175.022 230.14l-17.107 -10.007 0.031 -0.049 -3.328 -2.068c0.049 -17.879 0.037 -60.52 0.019 -77.917l20.04 30.102c1.401 2.105 4.513 2.037 5.822 -0.13l16.317 -27.04v40.116h9.507v-59.23h-9.507v0.093l-16.638 28.825c-1.284 2.222 -4.464 2.315 -5.871 0.167l-19.762 -30.201 -0.117 0.074c0 -0.037 -0.006 -0.074 -0.012 -0.111h-9.402c-0.074 1.278 -0.142 2.352 -0.142 3.426 -0.012 17.181 -0.012 34.368 -0.012 51.556v37.628l0.031 2.698c0.037 2.994 1.562 5.785 4.056 7.439 0.278 0.185 0.469 0.309 0.537 0.352 2.42 1.494 4.852 2.976 7.285 4.457 3.679 2.241 7.482 4.562 11.199 6.896 4.692 2.945 9.112 2.97 13.928 0.08 17.545 -10.538 36.788 -22.04 60.569 -36.196 4.723 -2.809 6.908 -6.723 6.89 -12.323 -0.08 -24.262 -0.08 -48.685 0 -72.589Z"/></g><g><path class="cls-2" d="M94.462 268.657c0.414 -0.506 0.846 -0.685 1.377 -0.685a1.729 1.729 0 0 1 1.716 1.716v5.661l5.612 -6.692c0.414 -0.506 0.87 -0.685 1.377 -0.685a1.729 1.729 0 0 1 1.716 1.716V282.751c0 0.938 -0.778 1.716 -1.716 1.716s-1.716 -0.778 -1.716 -1.716v-8.686l-5.272 6.303V282.751c0 0.938 -0.778 1.716 -1.716 1.716s-1.716 -0.778 -1.716 -1.716v-8.662l-8.229 9.81c-0.296 0.364 -0.803 0.574 -1.235 0.574 -0.895 0 -1.605 -0.71 -1.605 -1.605 0 -0.346 0.068 -0.667 0.364 -1.031l11.045 -13.174Z"/><path class="cls-2" d="M109.013 269.688c0 -0.938 0.778 -1.716 1.716 -1.716s1.716 0.778 1.716 1.716V282.751c0 0.938 -0.778 1.716 -1.716 1.716s-1.716 -0.778 -1.716 -1.716z"/><path class="cls-2" d="M114.736 276.219c0 -4.606 3.642 -8.248 8.273 -8.248 2.408 0 4.494 0.988 5.89 2.426 0.296 0.321 0.457 0.778 0.457 1.167 0 0.938 -0.778 1.698 -1.716 1.698 -0.457 0 -0.92 -0.253 -1.377 -0.667 -0.846 -0.778 -1.926 -1.309 -3.253 -1.309 -2.636 0 -4.723 2.179 -4.723 4.927s2.087 4.927 4.723 4.927c1.327 0 2.408 -0.525 3.253 -1.309 0.457 -0.414 0.914 -0.667 1.377 -0.667 0.938 0 1.716 0.753 1.716 1.698 0 0.389 -0.161 0.846 -0.457 1.167 -1.395 1.445 -3.482 2.426 -5.89 2.426 -4.63 0 -8.273 -3.642 -8.273 -8.248Z"/><path class="cls-2" d="M131.646 269.916a1.729 1.729 0 0 1 1.716 -1.716h4.081c3.118 0 5.272 2.272 5.272 5.044 0 2.179 -1.259 3.599 -2.519 4.099l-0.117 0.043 3.575 4.26c0.296 0.364 0.389 0.735 0.389 1.124 0 0.963 -0.759 1.698 -1.698 1.698 -0.506 0 -0.988 -0.204 -1.327 -0.617l-4.951 -5.89c-0.253 -0.296 -0.525 -0.735 -0.525 -1.327 0 -0.87 0.685 -1.562 1.537 -1.562h0.253c1.006 0 1.834 -0.827 1.834 -1.834s-0.827 -1.834 -1.834 -1.834h-2.247v11.341c0 0.938 -0.778 1.716 -1.716 1.716s-1.716 -0.778 -1.716 -1.716V269.91Z"/><path class="cls-2" d="M144.481 276.219c0 -4.606 3.642 -8.248 8.273 -8.248s8.273 3.642 8.273 8.248 -3.642 8.248 -8.273 8.248 -8.273 -3.642 -8.273 -8.248m12.989 0c0 -2.747 -2.087 -4.927 -4.723 -4.927s-4.723 2.179 -4.723 4.927 2.087 4.927 4.723 4.927 4.723 -2.179 4.723 -4.927"/><path class="cls-2" d="M162.625 280.8a1.729 1.729 0 0 1 1.716 -1.716c0.685 0 1.099 0.364 1.395 0.778 0.457 0.617 0.803 1.395 2.037 1.395 1.031 0 1.834 -0.803 1.834 -1.834s-0.963 -1.445 -2.155 -1.834l-1.167 -0.389c-1.741 -0.574 -3.55 -1.648 -3.55 -4.673 0 -2.587 2.222 -4.562 5.044 -4.562 3.025 0 4.902 2.198 4.902 3.414a1.729 1.729 0 0 1 -1.716 1.716c-0.667 0 -1.006 -0.321 -1.327 -0.71 -0.438 -0.549 -0.803 -1.216 -1.858 -1.216 -0.895 0 -1.605 0.71 -1.605 1.58 0 0.938 0.87 1.395 1.809 1.698l0.988 0.321c1.926 0.617 4.081 1.556 4.081 4.883 0 2.747 -2.315 4.809 -5.272 4.809s-5.155 -2.247 -5.155 -3.667Z"/><path class="cls-2" d="M174.657 276.219c0 -4.606 3.642 -8.248 8.273 -8.248s8.273 3.642 8.273 8.248 -3.642 8.248 -8.273 8.248 -8.273 -3.642 -8.273 -8.248m12.989 0c0 -2.747 -2.087 -4.927 -4.723 -4.927s-4.723 2.179 -4.723 4.927 2.087 4.927 4.723 4.927 4.723 -2.179 4.723 -4.927"/><path class="cls-2" d="M193.487 269.916a1.729 1.729 0 0 1 1.716 -1.716h5.865c0.895 0 1.605 0.71 1.605 1.605s-0.71 1.605 -1.605 1.605h-4.149v3.21h4.149c0.895 0 1.605 0.71 1.605 1.605s-0.71 1.605 -1.605 1.605h-4.149v4.927c0 0.938 -0.778 1.716 -1.716 1.716s-1.716 -0.778 -1.716 -1.716v-12.835Z"/><path class="cls-2" d="M207.742 271.404h-2.544c-0.895 0 -1.605 -0.71 -1.605 -1.605s0.71 -1.605 1.605 -1.605h8.526c0.895 0 1.605 0.71 1.605 1.605s-0.71 1.605 -1.605 1.605h-2.544v11.341c0 0.938 -0.778 1.716 -1.716 1.716s-1.716 -0.778 -1.716 -1.716v-11.341Z"/><path class="cls-2" d="M222.429 282.516c0 -1.074 0.87 -1.945 1.945 -1.945s1.951 0.87 1.951 1.945 -0.87 1.945 -1.951 1.945 -1.945 -0.87 -1.945 -1.945"/><path class="cls-2" d="M228.843 269.78c0 -1.006 0.778 -1.809 1.79 -1.809 0.574 0 1.099 0.272 1.377 0.617l6.346 7.587v-6.482c0 -0.938 0.778 -1.716 1.716 -1.716s1.716 0.778 1.716 1.716v13.063c0 0.938 -0.778 1.716 -1.716 1.716s-1.716 -0.778 -1.716 -1.716v-1.235l-6.075 -7.242v8.476c0 0.938 -0.778 1.716 -1.716 1.716s-1.716 -0.778 -1.716 -1.716V269.786Z"/><path class="cls-2" d="M244.882 269.916a1.729 1.729 0 0 1 1.716 -1.716h5.865c0.895 0 1.605 0.71 1.605 1.605s-0.71 1.605 -1.605 1.605h-4.149v3.21h4.149c0.895 0 1.605 0.71 1.605 1.605s-0.71 1.605 -1.605 1.605h-4.149v3.21h4.149c0.895 0 1.605 0.71 1.605 1.605s-0.71 1.605 -1.605 1.605h-5.865a1.729 1.729 0 0 1 -1.716 -1.716v-12.606Z"/><path class="cls-2" d="M259.365 271.404H256.822c-0.895 0 -1.605 -0.71 -1.605 -1.605s0.71 -1.605 1.605 -1.605h8.526c0.895 0 1.605 0.71 1.605 1.605s-0.71 1.605 -1.605 1.605h-2.544v11.341c0 0.938 -0.778 1.716 -1.716 1.716s-1.716 -0.778 -1.716 -1.716v-11.341Z"/></g></svg>