<?xml version="1.0" encoding="UTF-8"?>
<svg id="Capa_1" data-name="Capa 1" xmlns="http://www.w3.org/2000/svg" viewBox="0 0 566.93 566.93">
  <defs>
    <style>
      .cls-1 {
        fill: #512BD4;
      }

      .cls-1, .cls-2 {
        stroke-width: 0px;
      }

      .cls-2 {
        fill: #512BD4;
      }
    </style>
  </defs>
  <g>
    <g>
      <path class="cls-2" d="M267.73,330.5v6.61h-6.89v-6.61h6.89Z"/>
      <path class="cls-2" d="M292.7,337.11h-6.18l-6.77-10.93c-.87-1.4-1.75-3.1-2.63-5.11.4,1.59.6,2.95.6,4.06v11.98h-6.16v-24.74h7.18l5.76,9.06c1.15,1.8,2.02,3.38,2.61,4.75-.39-2.11-.58-4.28-.58-6.49v-7.32h6.18v24.74Z"/>
      <path class="cls-2" d="M315.63,331.21v5.91h-18.61v-24.74h18.61v5.71h-11.16v3.59h9.02v5.49h-9.02v4.04h11.16Z"/>
      <path class="cls-2" d="M328.8,318.3v18.81h-7.19v-18.81h-5.13v-5.93h17.45v5.93h-5.13Z"/>
    </g>
    <path class="cls-1" d="M403.88,188.2c.03-9.05-3.52-15.39-11.17-19.95-32.99-19.65-65.99-39.39-98.09-58.66-7.73-4.64-14.92-4.59-22.62.16-5.13,3.16-10.39,6.28-15.48,9.3-2.34,1.39-4.67,2.77-7,4.17l-21.19,12.68c-17.96,10.75-35.91,21.5-53.9,32.19-7.71,4.58-11.31,10.27-11.32,17.89-.08,39.83-.05,78.83-.02,122.03,0,4.79,1.35,11.35,7.75,15.35,6.58,4.11,13.7,8.32,21.77,12.87l-.2.33,18.73,11.63,1.27-2.04c.09.02.18.06.27.08v-.52l6.42-10.34-6.42-3.99s-4.8-3.55-7.1-4.85c-6.18-3.49-12.32-7.25-18.26-10.89l-3.18-1.94c-1.14-.7-2.13-1.52-3-2.24-.33-.28-.65-.55-.96-.78l-.98-.76v-124.99l104.27-63.71,104.29,63.7v125.87l-104.26,61.99-27.71-16.21.05-.08-5.39-3.35c.08-28.96.06-98.03.03-126.21l32.46,48.76c2.27,3.41,7.31,3.3,9.43-.21l26.43-43.8v64.98h15.4v-95.94h-15.4v.15l-26.95,46.69c-2.08,3.6-7.23,3.75-9.51.27l-32.01-48.92-.19.12c0-.06-.01-.12-.02-.18h-15.23s0,0,0,0c-.12,2.07-.23,3.81-.23,5.55-.02,27.83-.02,55.67-.02,83.51v60.95l.05,4.37c.06,4.85,2.53,9.37,6.57,12.05.45.3.76.5.87.57,3.92,2.42,7.86,4.82,11.8,7.22,5.96,3.63,12.12,7.39,18.14,11.17,7.6,4.77,14.76,4.81,22.56.13,28.42-17.07,59.59-35.7,98.11-58.63,7.65-4.55,11.19-10.89,11.16-19.96-.13-39.3-.13-78.86,0-117.58Z"/>
  </g>
  <g>
    <path class="cls-2" d="M153.01,435.17c.67-.82,1.37-1.11,2.23-1.11,1.52,0,2.78,1.26,2.78,2.78v9.17l9.09-10.84c.67-.82,1.41-1.11,2.23-1.11,1.52,0,2.78,1.26,2.78,2.78v21.16c0,1.52-1.26,2.78-2.78,2.78s-2.78-1.26-2.78-2.78v-14.07l-8.54,10.21v3.86c0,1.52-1.26,2.78-2.78,2.78s-2.78-1.26-2.78-2.78v-14.03l-13.33,15.89c-.48.59-1.3.93-2,.93-1.45,0-2.6-1.15-2.6-2.6,0-.56.11-1.08.59-1.67l17.89-21.34Z"/>
    <path class="cls-2" d="M176.58,436.84c0-1.52,1.26-2.78,2.78-2.78s2.78,1.26,2.78,2.78v21.16c0,1.52-1.26,2.78-2.78,2.78s-2.78-1.26-2.78-2.78v-21.16Z"/>
    <path class="cls-2" d="M185.85,447.42c0-7.46,5.9-13.36,13.4-13.36,3.9,0,7.28,1.6,9.54,3.93.48.52.74,1.26.74,1.89,0,1.52-1.26,2.75-2.78,2.75-.74,0-1.49-.41-2.23-1.08-1.37-1.26-3.12-2.12-5.27-2.12-4.27,0-7.65,3.53-7.65,7.98s3.38,7.98,7.65,7.98c2.15,0,3.9-.85,5.27-2.12.74-.67,1.48-1.08,2.23-1.08,1.52,0,2.78,1.22,2.78,2.75,0,.63-.26,1.37-.74,1.89-2.26,2.34-5.64,3.93-9.54,3.93-7.5,0-13.4-5.9-13.4-13.36Z"/>
    <path class="cls-2" d="M213.24,437.21c0-1.52,1.26-2.78,2.78-2.78h6.61c5.05,0,8.54,3.68,8.54,8.17,0,3.53-2.04,5.83-4.08,6.64l-.19.07,5.79,6.9c.48.59.63,1.19.63,1.82,0,1.56-1.23,2.75-2.75,2.75-.82,0-1.6-.33-2.15-1l-8.02-9.54c-.41-.48-.85-1.19-.85-2.15,0-1.41,1.11-2.53,2.49-2.53h.41c1.63,0,2.97-1.34,2.97-2.97s-1.34-2.97-2.97-2.97h-3.64v18.37c0,1.52-1.26,2.78-2.78,2.78s-2.78-1.26-2.78-2.78v-20.79Z"/>
    <path class="cls-2" d="M234.03,447.42c0-7.46,5.9-13.36,13.4-13.36s13.4,5.9,13.4,13.36-5.9,13.36-13.4,13.36-13.4-5.9-13.4-13.36ZM255.07,447.42c0-4.45-3.38-7.98-7.65-7.98s-7.65,3.53-7.65,7.98,3.38,7.98,7.65,7.98,7.65-3.53,7.65-7.98Z"/>
    <path class="cls-2" d="M263.42,454.84c0-1.52,1.26-2.78,2.78-2.78,1.11,0,1.78.59,2.26,1.26.74,1,1.3,2.26,3.3,2.26,1.67,0,2.97-1.3,2.97-2.97s-1.56-2.34-3.49-2.97l-1.89-.63c-2.82-.93-5.75-2.67-5.75-7.57,0-4.19,3.6-7.39,8.17-7.39,4.9,0,7.94,3.56,7.94,5.53,0,1.52-1.26,2.78-2.78,2.78-1.08,0-1.63-.52-2.15-1.15-.71-.89-1.3-1.97-3.01-1.97-1.45,0-2.6,1.15-2.6,2.56,0,1.52,1.41,2.26,2.93,2.75l1.6.52c3.12,1,6.61,2.52,6.61,7.91,0,4.45-3.75,7.79-8.54,7.79s-8.35-3.64-8.35-5.94Z"/>
    <path class="cls-2" d="M282.91,447.42c0-7.46,5.9-13.36,13.4-13.36s13.4,5.9,13.4,13.36-5.9,13.36-13.4,13.36-13.4-5.9-13.4-13.36ZM303.95,447.42c0-4.45-3.38-7.98-7.65-7.98s-7.65,3.53-7.65,7.98,3.38,7.98,7.65,7.98,7.65-3.53,7.65-7.98Z"/>
    <path class="cls-2" d="M313.41,437.21c0-1.52,1.26-2.78,2.78-2.78h9.5c1.45,0,2.6,1.15,2.6,2.6s-1.15,2.6-2.6,2.6h-6.72v5.2h6.72c1.45,0,2.6,1.15,2.6,2.6s-1.15,2.6-2.6,2.6h-6.72v7.98c0,1.52-1.26,2.78-2.78,2.78s-2.78-1.26-2.78-2.78v-20.79Z"/>
    <path class="cls-2" d="M336.5,439.62h-4.12c-1.45,0-2.6-1.15-2.6-2.6s1.15-2.6,2.6-2.6h13.81c1.45,0,2.6,1.15,2.6,2.6s-1.15,2.6-2.6,2.6h-4.12v18.37c0,1.52-1.26,2.78-2.78,2.78s-2.78-1.26-2.78-2.78v-18.37Z"/>
    <path class="cls-2" d="M360.29,457.62c0-1.74,1.41-3.15,3.15-3.15s3.16,1.41,3.16,3.15-1.41,3.15-3.16,3.15-3.15-1.41-3.15-3.15Z"/>
    <path class="cls-2" d="M370.68,436.99c0-1.63,1.26-2.93,2.9-2.93.93,0,1.78.44,2.23,1l10.28,12.29v-10.5c0-1.52,1.26-2.78,2.78-2.78s2.78,1.26,2.78,2.78v21.16c0,1.52-1.26,2.78-2.78,2.78s-2.78-1.26-2.78-2.78v-2l-9.84-11.73v13.73c0,1.52-1.26,2.78-2.78,2.78s-2.78-1.26-2.78-2.78v-21.01Z"/>
    <path class="cls-2" d="M396.66,437.21c0-1.52,1.26-2.78,2.78-2.78h9.5c1.45,0,2.6,1.15,2.6,2.6s-1.15,2.6-2.6,2.6h-6.72v5.2h6.72c1.45,0,2.6,1.15,2.6,2.6s-1.15,2.6-2.6,2.6h-6.72v5.2h6.72c1.45,0,2.6,1.15,2.6,2.6s-1.15,2.6-2.6,2.6h-9.5c-1.52,0-2.78-1.26-2.78-2.78v-20.42Z"/>
    <path class="cls-2" d="M420.12,439.62h-4.12c-1.45,0-2.6-1.15-2.6-2.6s1.15-2.6,2.6-2.6h13.81c1.45,0,2.6,1.15,2.6,2.6s-1.15,2.6-2.6,2.6h-4.12v18.37c0,1.52-1.26,2.78-2.78,2.78s-2.78-1.26-2.78-2.78v-18.37Z"/>
  </g>
</svg>