<?xml version="1.0" encoding="UTF-8"?>
<svg id="Capa_1" data-name="Capa 1" xmlns="http://www.w3.org/2000/svg" viewBox="0 0 566.93 566.93">
  <defs>
    <style>
      .cls-1 {
        fill: #2C2E35;
        stroke-width: 0px;
      }
    </style>
  </defs>
  <path class="cls-1" d="M319.05,403.66c-82.74,0-150.05-53.92-150.05-120.2s67.32-120.21,150.05-120.21c15.71,0,31.36,2,46.24,5.87-44.42,26.83-71.09,68.9-71.09,114.35s26.67,87.52,71.09,114.35c-14.88,3.85-30.53,5.85-46.24,5.85M319.05,140.19c-98.62,0-178.86,64.27-178.86,143.27s80.24,143.27,178.86,143.27c29.13,0,58.09-5.77,83.74-16.68l23.94-10.19-23.94-10.18c-49.22-20.93-79.81-61.63-79.81-106.22s30.59-85.28,79.81-106.22l23.94-10.19-23.94-10.18c-25.65-10.91-54.61-16.68-83.74-16.68"/>
</svg>