<svg id="Capa_1" data-name="Capa 1" xmlns="http://www.w3.org/2000/svg" viewBox="0 0 350 350" width="350" height="350"><defs><style>.cls-1 {
        fill: #5FA04E;
      }

      .cls-1, .cls-2, .cls-3 {
        stroke-width: 0px;
      }

      .cls-2 {
        fill: #5FA04E;
      }

      .cls-3 {
        fill: #5FA04E;
      }</style></defs><g><path class="cls-1" d="M242.444 103.871c-20.367 -12.131 -40.74 -24.318 -60.557 -36.214 -4.772 -2.865 -9.211 -2.834 -13.965 0.099 -3.167 1.951 -6.414 3.877 -9.557 5.741 -1.445 0.858 -2.883 1.71 -4.322 2.574l-13.082 7.828c-11.088 6.637 -22.169 13.273 -33.276 19.873 -4.76 2.828 -6.982 6.34 -6.989 11.045 -0.049 24.589 -0.031 48.667 -0.012 75.336 0 2.957 0.833 7.007 4.785 9.476 6.26 3.914 13.279 7.952 22.089 12.711 3.167 1.71 7.019 2.266 11.767 1.692 9.674 -1.173 15.243 -7.723 15.28 -17.978 0.068 -19.706 0.043 -39.746 0.025 -59.118l-0.012 -5.624c0 -0.722 -0.099 -1.488 -0.21 -2.297h-9.402l-0.019 0.327c-0.068 1.136 -0.123 2.118 -0.123 3.099 -0.012 17.181 -0.012 28.121 -0.012 45.302v14.323c0 0.303 0 0.599 0.006 0.901 0.012 0.759 0.019 1.55 -0.031 2.352 -0.198 3.149 -1.513 5.778 -3.704 7.396 -2.155 1.593 -4.994 2.081 -7.995 1.364 -2.056 -0.488 -4.204 -1.352 -6.223 -2.488 -3.815 -2.155 -7.606 -4.476 -11.273 -6.723l-1.963 -1.198c-0.704 -0.432 -1.315 -0.938 -1.852 -1.383 -0.204 -0.173 -0.401 -0.34 -0.593 -0.482l-0.605 -0.469V114.175l64.372 -39.332 64.384 39.326V191.876l-64.366 38.27 -17.459 -10.211 -9.631 4.859c0.568 0.42 1.056 0.766 1.556 1.074 2.42 1.494 4.852 2.976 7.285 4.457 3.679 2.241 7.482 4.562 11.199 6.896 4.692 2.945 9.112 2.97 13.928 0.08 17.545 -10.538 36.788 -22.04 60.569 -36.196 4.723 -2.809 6.908 -6.723 6.89 -12.323 -0.08 -24.262 -0.08 -48.685 0 -72.589 0.019 -5.587 -2.173 -9.501 -6.896 -12.316Z"/><path class="cls-1" d="M204.84 188.258c-7.581 1.815 -15.317 1.759 -22.99 -0.148 -5.427 -1.352 -8.884 -4.902 -9.995 -10.261 -0.123 -0.599 -0.395 -1.229 -0.685 -1.889a0.185 0.185 0 0 0 -0.025 -0.049h-8.353c0 0.049 -0.012 0.093 -0.019 0.142 -0.105 0.858 -0.191 1.593 -0.117 2.222 1.019 8.655 5.995 14.384 15.199 17.515 7.205 2.451 15.125 3.044 24.213 1.821 6.371 -0.858 11.168 -2.772 15.088 -6.019 5.68 -4.71 7.853 -10.97 6.643 -19.144 -0.914 -6.167 -4.809 -9.995 -12.261 -12.057 -3.408 -0.938 -6.982 -1.605 -10.446 -2.247 -0.969 -0.179 -1.939 -0.358 -2.902 -0.549 -2.29 -0.444 -4.593 -0.858 -6.89 -1.272 -3.71 -0.667 -7.55 -1.358 -11.31 -2.167 -3.371 -0.722 -5.371 -2.79 -5.624 -5.828 -0.426 -5.044 1.815 -7.322 3.766 -8.347 1.871 -0.982 4.772 -2.21 7.958 -2.531 4.112 -0.414 8.217 -0.284 12.045 -0.086 5.124 0.265 12.199 1.593 14.644 9.964 0.031 0.031 0.068 0.068 0.105 0.099h8.458v-0.099c0.043 -1.019 0.086 -1.895 -0.062 -2.686 -1.346 -7.414 -6.118 -12.187 -14.588 -14.576 -6.081 -1.716 -12.934 -2.185 -20.941 -1.42 -5.192 0.494 -9.458 1.864 -13.051 4.186 -6.062 3.92 -8.674 9.52 -7.982 17.119 0.586 6.458 4.204 10.767 11.063 13.181l0.352 0.123c1.093 0.389 2.13 0.753 3.161 0.926 2.179 0.364 4.371 0.691 6.563 1.019 2.828 0.426 5.741 0.864 8.612 1.371l2.025 0.352c3.963 0.691 8.057 1.401 11.989 2.593 3.463 1.05 7.198 3.747 5.309 10.625 -1.161 4.241 -4.173 6.97 -8.939 8.112Z"/></g><g><path class="cls-2" d="M166.403 104c-0.191 0 -0.377 0.049 -0.543 0.148l-6.433 3.754c-0.333 0.191 -0.543 0.549 -0.543 0.938v7.513c0 0.389 0.204 0.741 0.543 0.938l6.433 3.754c0.34 0.198 0.753 0.198 1.093 0l6.433 -3.754c0.333 -0.191 0.543 -0.549 0.543 -0.938V108.841c0 -0.389 -0.204 -0.741 -0.543 -0.938l-6.433 -3.754a1.074 1.074 0 0 0 -0.543 -0.148Z"/><path class="cls-2" d="M200.796 104c-0.191 0 -0.377 0.049 -0.543 0.148l-6.433 3.754c-0.333 0.191 -0.543 0.549 -0.543 0.938v7.513c0 0.389 0.204 0.741 0.543 0.938l6.242 3.772c0.333 0.204 0.753 0.204 1.093 0.006l3.068 -1.784a0.482 0.482 0 0 0 0 -0.833l-6.649 -3.914v-3.859l3.223 -1.877 3.223 1.877v2.686c0 0.358 0.303 0.414 0.506 0.296 0.815 -0.475 3.26 -1.895 3.26 -1.895 0.327 -0.191 0.531 -0.543 0.531 -0.926v-2c0 -0.389 -0.204 -0.741 -0.543 -0.938l-6.433 -3.754c-0.173 -0.099 -0.358 -0.148 -0.543 -0.148"/><path class="cls-2" d="M149.204 104c-0.191 0 -0.377 0.049 -0.543 0.148l-6.433 3.747c-0.333 0.198 -0.543 0.556 -0.543 0.938v9.594c0 0.469 0.506 0.759 0.914 0.525l2.852 -1.661c0.327 -0.191 0.531 -0.543 0.531 -0.926v-5.68l3.223 -1.883 3.223 1.883v5.68c0 0.383 0.204 0.735 0.531 0.926l2.852 1.661a0.609 0.609 0 0 0 0.914 -0.525v-9.594c0 -0.389 -0.204 -0.747 -0.543 -0.938l-6.433 -3.747a1.074 1.074 0 0 0 -0.543 -0.148"/><path class="cls-2" d="m190.585 94.962 -2.803 -1.63a0.648 0.648 0 0 0 -0.969 0.562v11.816l-2.679 -1.562a1.074 1.074 0 0 0 -1.087 0l-6.433 3.754c-0.333 0.191 -0.543 0.549 -0.543 0.938v7.513c0 0.389 0.204 0.741 0.543 0.938l6.433 3.754a1.074 1.074 0 0 0 1.087 0l6.433 -3.754c0.333 -0.191 0.543 -0.549 0.543 -0.938v-20.459c0 -0.383 -0.204 -0.735 -0.531 -0.926Zm-3.766 17.632v1.908l-3.223 1.883 -3.223 -1.883v-3.821l3.223 -1.883 3.223 1.883v1.908Z"/><path class="cls-2" points="325.25 178.91 322.26 180.65 322.26 184.12 325.25 185.86 328.23 184.12 328.23 180.65 325.25 178.91" d="M200.796 110.452L198.95 111.526L198.95 113.668L200.796 114.743L202.636 113.668L202.636 111.526L200.796 110.452Z"/></g><g><path class="cls-3" d="M131.337 269.78c0 -1.006 0.778 -1.809 1.79 -1.809 0.574 0 1.099 0.272 1.377 0.617l6.346 7.587v-6.482c0 -0.938 0.778 -1.716 1.716 -1.716s1.716 0.778 1.716 1.716v13.063c0 0.938 -0.778 1.716 -1.716 1.716s-1.716 -0.778 -1.716 -1.716v-1.235l-6.075 -7.242v8.476c0 0.938 -0.778 1.716 -1.716 1.716s-1.716 -0.778 -1.716 -1.716V269.786Z"/><path class="cls-3" d="M146.919 276.219c0 -4.606 3.642 -8.248 8.273 -8.248s8.273 3.642 8.273 8.248 -3.642 8.248 -8.273 8.248 -8.273 -3.642 -8.273 -8.248m12.995 0c0 -2.747 -2.087 -4.927 -4.723 -4.927s-4.723 2.179 -4.723 4.927 2.087 4.927 4.723 4.927 4.723 -2.179 4.723 -4.927"/><path class="cls-3" d="M165.755 269.916a1.729 1.729 0 0 1 1.716 -1.716h3.939c4.951 0 8.273 3.55 8.273 8.02s-3.321 8.02 -8.273 8.02h-3.939a1.729 1.729 0 0 1 -1.716 -1.716zm5.661 11.112c2.957 0 4.723 -2.13 4.723 -4.815s-1.766 -4.809 -4.723 -4.809h-2.222v9.625z"/><path class="cls-3" d="M181.973 269.916a1.729 1.729 0 0 1 1.716 -1.716h5.865c0.895 0 1.605 0.71 1.605 1.605s-0.71 1.605 -1.605 1.605h-4.149v3.21h4.149c0.895 0 1.605 0.71 1.605 1.605s-0.71 1.605 -1.605 1.605h-4.149v3.21h4.149c0.895 0 1.605 0.71 1.605 1.605s-0.71 1.605 -1.605 1.605h-5.865a1.729 1.729 0 0 1 -1.716 -1.716v-12.606Z"/><path class="cls-3" d="M199.642 281.029h0.043c1.673 0 2.821 -1.284 2.821 -3.05v-8.297c0 -0.938 0.778 -1.716 1.716 -1.716s1.716 0.778 1.716 1.716v8.069c0 3.871 -2.587 6.482 -6.254 6.482h-0.043c-0.895 0 -1.605 -0.71 -1.605 -1.605s0.71 -1.605 1.605 -1.605Z"/><path class="cls-3" d="M208.236 280.8a1.729 1.729 0 0 1 1.716 -1.716c0.685 0 1.099 0.364 1.395 0.778 0.457 0.617 0.803 1.395 2.037 1.395 1.031 0 1.834 -0.803 1.834 -1.834s-0.963 -1.445 -2.155 -1.834l-1.167 -0.389c-1.741 -0.574 -3.55 -1.648 -3.55 -4.673 0 -2.587 2.222 -4.562 5.044 -4.562 3.025 0 4.902 2.198 4.902 3.414a1.729 1.729 0 0 1 -1.716 1.716c-0.667 0 -1.006 -0.321 -1.327 -0.71 -0.438 -0.549 -0.803 -1.216 -1.858 -1.216 -0.895 0 -1.605 0.71 -1.605 1.58 0 0.938 0.87 1.395 1.809 1.698l0.988 0.321c1.926 0.617 4.081 1.556 4.081 4.883 0 2.747 -2.315 4.809 -5.272 4.809s-5.155 -2.247 -5.155 -3.667Z"/></g></svg>