<?xml version="1.0" encoding="UTF-8"?>
<svg id="Capa_1" data-name="Capa 1" xmlns="http://www.w3.org/2000/svg" viewBox="0 0 566.93 566.93">
  <defs>
    <style>
      .cls-1 {
        fill: #5FA04E;
      }

      .cls-1, .cls-2, .cls-3 {
        stroke-width: 0px;
      }

      .cls-2 {
        fill: #5FA04E;
      }

      .cls-3 {
        fill: #5FA04E;
      }
    </style>
  </defs>
  <g>
    <path class="cls-1" d="M392.71,168.25c-32.99-19.65-65.99-39.39-98.09-58.66-7.73-4.64-14.92-4.59-22.62.16-5.13,3.16-10.39,6.28-15.48,9.3-2.34,1.39-4.67,2.77-7,4.17l-21.19,12.68c-17.96,10.75-35.91,21.5-53.9,32.19-7.71,4.58-11.31,10.27-11.32,17.89-.08,39.83-.05,78.83-.02,122.03,0,4.79,1.35,11.35,7.75,15.35,10.14,6.34,21.51,12.88,35.78,20.59,5.13,2.77,11.37,3.67,19.06,2.74,15.67-1.9,24.69-12.51,24.75-29.12.11-31.92.07-64.38.04-95.76l-.02-9.11c0-1.17-.16-2.41-.34-3.72h-15.23c-.01.18-.02.36-.03.53-.11,1.84-.2,3.43-.2,5.02-.02,27.83-.02,45.55-.02,73.38v23.2c0,.49,0,.97.01,1.46.02,1.23.03,2.51-.05,3.81-.32,5.1-2.45,9.36-6,11.98-3.49,2.58-8.09,3.37-12.95,2.21-3.33-.79-6.81-2.19-10.08-4.03-6.18-3.49-12.32-7.25-18.26-10.89l-3.18-1.94c-1.14-.7-2.13-1.52-3-2.24-.33-.28-.65-.55-.96-.78l-.98-.76v-124.99l104.27-63.71,104.29,63.7v125.87l-104.26,61.99-28.28-16.54-15.6,7.87c.92.68,1.71,1.24,2.52,1.74,3.92,2.42,7.86,4.82,11.8,7.22,5.96,3.63,12.12,7.39,18.14,11.17,7.6,4.77,14.76,4.81,22.56.13,28.42-17.07,59.59-35.7,98.11-58.63,7.65-4.55,11.19-10.89,11.16-19.96-.13-39.3-.13-78.86,0-117.58.03-9.05-3.52-15.39-11.17-19.95Z"/>
    <path class="cls-1" d="M331.8,304.94c-12.28,2.94-24.81,2.85-37.24-.24-8.79-2.19-14.39-7.94-16.19-16.62-.2-.97-.64-1.99-1.11-3.06-.01-.03-.02-.05-.04-.08h-13.53c0,.08-.02.15-.03.23-.17,1.39-.31,2.58-.19,3.6,1.65,14.02,9.71,23.3,24.62,28.37,11.67,3.97,24.5,4.93,39.22,2.95,10.32-1.39,18.09-4.49,24.44-9.75,9.2-7.63,12.72-17.77,10.76-31.01-1.48-9.99-7.79-16.19-19.86-19.53-5.52-1.52-11.31-2.6-16.92-3.64-1.57-.29-3.14-.58-4.7-.89-3.71-.72-7.44-1.39-11.16-2.06-6.01-1.08-12.23-2.2-18.32-3.51-5.46-1.17-8.7-4.52-9.11-9.44-.69-8.17,2.94-11.86,6.1-13.52,3.03-1.59,7.73-3.58,12.89-4.1,6.66-.67,13.31-.46,19.51-.14,8.3.43,19.76,2.58,23.72,16.14.05.05.11.11.17.16h13.7c0-.05,0-.11,0-.16.07-1.65.14-3.07-.1-4.35-2.18-12.01-9.91-19.74-23.63-23.61-9.85-2.78-20.95-3.54-33.92-2.3-8.41.8-15.32,3.02-21.14,6.78-9.82,6.35-14.05,15.42-12.93,27.73.95,10.46,6.81,17.44,17.92,21.35l.57.2c1.77.63,3.45,1.22,5.12,1.5,3.53.59,7.08,1.12,10.63,1.65,4.58.69,9.3,1.4,13.95,2.22l3.28.57c6.42,1.12,13.05,2.27,19.42,4.2,5.61,1.7,11.66,6.07,8.6,17.21-1.88,6.87-6.76,11.29-14.48,13.14Z"/>
  </g>
  <g>
    <path class="cls-2" d="M269.54,168.46c-.31,0-.61.08-.88.24l-10.42,6.08c-.54.31-.88.89-.88,1.52v12.17c0,.63.33,1.2.88,1.52l10.42,6.08c.55.32,1.22.32,1.77,0l10.42-6.08c.54-.31.88-.89.88-1.52v-12.17c0-.63-.33-1.2-.88-1.52l-10.42-6.08c-.27-.16-.58-.24-.88-.24Z"/>
    <path class="cls-2" d="M325.25,168.46c-.31,0-.61.08-.88.24l-10.42,6.08c-.54.31-.88.89-.88,1.52v12.17c0,.63.33,1.2.88,1.52l10.11,6.11c.54.33,1.22.33,1.77.01l4.97-2.89c.52-.3.52-1.04,0-1.35l-10.77-6.34v-6.25l5.22-3.04,5.22,3.04v4.35c0,.58.49.67.82.48,1.32-.77,5.28-3.07,5.28-3.07.53-.31.86-.88.86-1.5v-3.24c0-.63-.33-1.2-.88-1.52l-10.42-6.08c-.28-.16-.58-.24-.88-.24Z"/>
    <path class="cls-2" d="M241.68,168.46c-.31,0-.61.08-.88.24l-10.42,6.07c-.54.32-.88.9-.88,1.52v15.54c0,.76.82,1.23,1.48.85l4.62-2.69c.53-.31.86-.88.86-1.5v-9.2l5.22-3.05,5.22,3.05v9.2c0,.62.33,1.19.86,1.5l4.62,2.69c.65.38,1.48-.09,1.48-.85v-15.54c0-.63-.33-1.21-.88-1.52l-10.42-6.07c-.27-.16-.58-.24-.88-.24Z"/>
    <path class="cls-2" d="M308.71,153.82l-4.54-2.64c-.17-.1-.34-.14-.52-.14-.55,0-1.05.44-1.05,1.05v19.14l-4.34-2.53c-.27-.16-.58-.24-.88-.24s-.61.08-.88.24l-10.42,6.08c-.54.31-.88.89-.88,1.52v12.17c0,.63.33,1.2.88,1.52l10.42,6.08c.27.16.58.24.88.24s.61-.08.88-.24l10.42-6.08c.54-.31.88-.89.88-1.52v-33.14c0-.62-.33-1.19-.86-1.5ZM302.61,182.38v3.09l-5.22,3.05-5.22-3.05v-6.19l5.22-3.05,5.22,3.05v3.09Z"/>
    <polygon class="cls-2" points="325.25 178.91 322.26 180.65 322.26 184.12 325.25 185.86 328.23 184.12 328.23 180.65 325.25 178.91"/>
  </g>
  <g>
    <path class="cls-3" d="M212.74,436.99c0-1.63,1.26-2.93,2.9-2.93.93,0,1.78.44,2.23,1l10.28,12.29v-10.5c0-1.52,1.26-2.78,2.78-2.78s2.78,1.26,2.78,2.78v21.16c0,1.52-1.26,2.78-2.78,2.78s-2.78-1.26-2.78-2.78v-2l-9.84-11.73v13.73c0,1.52-1.26,2.78-2.78,2.78s-2.78-1.26-2.78-2.78v-21.01Z"/>
    <path class="cls-3" d="M237.98,447.42c0-7.46,5.9-13.36,13.4-13.36s13.4,5.9,13.4,13.36-5.9,13.36-13.4,13.36-13.4-5.9-13.4-13.36ZM259.03,447.42c0-4.45-3.38-7.98-7.65-7.98s-7.65,3.53-7.65,7.98,3.38,7.98,7.65,7.98,7.65-3.53,7.65-7.98Z"/>
    <path class="cls-3" d="M268.49,437.21c0-1.52,1.26-2.78,2.78-2.78h6.38c8.02,0,13.4,5.75,13.4,12.99s-5.38,12.99-13.4,12.99h-6.38c-1.52,0-2.78-1.26-2.78-2.78v-20.42ZM277.66,455.21c4.79,0,7.65-3.45,7.65-7.8s-2.86-7.79-7.65-7.79h-3.6v15.59h3.6Z"/>
    <path class="cls-3" d="M294.76,437.21c0-1.52,1.26-2.78,2.78-2.78h9.5c1.45,0,2.6,1.15,2.6,2.6s-1.15,2.6-2.6,2.6h-6.72v5.2h6.72c1.45,0,2.6,1.15,2.6,2.6s-1.15,2.6-2.6,2.6h-6.72v5.2h6.72c1.45,0,2.6,1.15,2.6,2.6s-1.15,2.6-2.6,2.6h-9.5c-1.52,0-2.78-1.26-2.78-2.78v-20.42Z"/>
    <path class="cls-3" d="M323.38,455.21h.07c2.71,0,4.57-2.08,4.57-4.94v-13.44c0-1.52,1.26-2.78,2.78-2.78s2.78,1.26,2.78,2.78v13.07c0,6.27-4.19,10.5-10.13,10.5h-.07c-1.45,0-2.6-1.15-2.6-2.6s1.15-2.6,2.6-2.6Z"/>
    <path class="cls-3" d="M337.3,454.84c0-1.52,1.26-2.78,2.78-2.78,1.11,0,1.78.59,2.26,1.26.74,1,1.3,2.26,3.3,2.26,1.67,0,2.97-1.3,2.97-2.97s-1.56-2.34-3.49-2.97l-1.89-.63c-2.82-.93-5.75-2.67-5.75-7.57,0-4.19,3.6-7.39,8.17-7.39,4.9,0,7.94,3.56,7.94,5.53,0,1.52-1.26,2.78-2.78,2.78-1.08,0-1.63-.52-2.15-1.15-.71-.89-1.3-1.97-3.01-1.97-1.45,0-2.6,1.15-2.6,2.56,0,1.52,1.41,2.26,2.93,2.75l1.6.52c3.12,1,6.61,2.52,6.61,7.91,0,4.45-3.75,7.79-8.54,7.79s-8.35-3.64-8.35-5.94Z"/>
  </g>
</svg>