<?xml version="1.0" encoding="UTF-8"?>
<svg id="Capa_1" data-name="Capa 1" xmlns="http://www.w3.org/2000/svg" version="1.1" viewBox="0 0 283.46 283.46">
  <defs>
    <style>
      .cls-1 {
        fill: #FFFFFF;
        stroke-width: 0px;
      }
    </style>
  </defs>
  <path class="cls-1" d="M140.96,142.07c4.03,0,7.29-3.27,7.29-7.29v-47.53c0-4.12-3.26-7.38-7.38-7.38s-7.21,3.26-7.21,7.38v47.53c0,4.03,3.27,7.29,7.29,7.29h0Z"/>
  <path class="cls-1" d="M216.38,80.21c-2.06,0-4.12.86-6,2.92l-77.92,93.06c-7.05,8.42-17.49,13.32-28.47,13.34,0,0,0,0,0,0-16.48,0-29.52-12.18-29.52-32.43v-69.85c0-4.12-3.26-7.38-7.38-7.38s-7.21,3.26-7.21,7.38v68.99c0,28.32,20.13,47.36,44.84,47.36.16,0,.13,0,4.13-.13,10.65-.33,20.67-5.21,27.49-13.4l73.73-87.49-1.05,55.72h-30.89c-3.78,0-6.7,3.09-6.7,6.87s2.92,6.69,6.7,6.69h30.89v23.86c0,3.95,3.26,7.38,7.38,7.38s7.21-3.43,7.21-7.38v-108.12c0-4.12-3.26-7.38-7.21-7.38Z"/>
</svg>