<?xml version="1.0" encoding="UTF-8"?>
<svg id="Capa_1" data-name="Capa 1" xmlns="http://www.w3.org/2000/svg" viewBox="0 0 566.93 566.93">
  <defs>
    <style>
      .cls-1 {
        fill: #33709F;
      }

      .cls-1, .cls-2 {
        stroke-width: 0px;
      }

      .cls-2 {
        fill: #33709F;
      }
    </style>
  </defs>
  <g>
    <path class="cls-1" d="M277.22,185.86v-6.06h-60.88c-.4-.57-.62-.73-.62-.89-.01-10.33-.45-20.68.1-30.98.77-14.46,8.91-24.53,20.94-31.72,10.46-6.24,22.05-8.96,34.02-9.93,15.47-1.26,30.87-.81,45.85,3.89,11.86,3.72,22.21,9.67,29.08,20.51,3.75,5.91,5.57,12.39,5.58,19.37.03,10.73.03,21.47.05,32.2,0,1.08,0,2.16,0,3.61,7.73,0,15.14-.22,22.52.07,6.37.25,12.97.15,19.02,1.82,13.57,3.76,22.21,13.56,26.72,26.46,8.12,23.24,8.38,46.74-1.36,69.57-7.16,16.77-20.32,25.46-38.96,25.37-28.48-.13-56.97-.05-85.45-.07-1.28,0-2.56,0-4.03,0v6.18h60.83c.37.49.59.65.59.81,0,10.53.58,21.1-.14,31.58-1.07,15.6-10.52,25.72-23.76,32.74-9.44,5-19.71,7.32-30.24,8.22-16.38,1.4-32.68.94-48.45-4.44-12.42-4.24-22.87-11.09-29.11-23.16-2.63-5.08-3.89-10.49-3.89-16.2,0-10.83-.07-21.67.05-32.5.03-2.43-.58-3.32-3.16-3.26-8.02.16-16.05-.18-24.07.11-20.56.75-34.7-11.13-40.56-27.12-9.06-24.7-9.33-49.61,2.19-73.62,7.13-14.86,19.69-22.55,36.49-22.56,29.09-.01,58.17,0,87.26,0,1.08,0,2.15,0,3.38,0ZM215.63,296.69c0-7.91.15-15.53-.03-23.15-.42-17.76,14.01-32.64,32.58-32.3,23.67.43,47.35.12,71.02.1,12-.01,19.69-7.77,19.69-19.81,0-23.78-.04-47.56.02-71.33.02-6.57-2.27-12.1-6.64-16.9-4.95-5.42-11.21-8.73-18.06-10.93-14.98-4.81-30.34-5.16-45.83-3.37-9.86,1.14-19.32,3.67-27.63,9.33-6.98,4.76-12.07,10.97-12.57,19.81-.33,5.8-.1,11.63-.09,17.45,0,.56.22,1.11.4,1.95h60.96v30.6c-1.35,0-2.53,0-3.7,0-32.5,0-65,.2-97.5-.09-13.67-.12-22.59,6.25-28.21,18.07-5.82,12.24-6.45,25.35-5.73,38.56.49,8.96,2.24,17.71,6.5,25.75,4.72,8.92,11.53,15.53,22,16.13,10.78.61,21.62.14,32.82.14ZM277.49,296.82c1.52,0,2.71,0,3.9,0,33,0,66-.05,98.99.03,10.08.02,17.75-4.2,23.35-12.4,5.83-8.54,8.05-18.28,8.8-28.38,1.01-13.73.4-27.34-5.63-40.05-5.54-11.69-14.41-18.44-27.97-17.93-6.81.25-13.64.04-20.46.04-2.28,0-4.56,0-7.14,0,0,8.03.02,15.73,0,23.43-.07,18.74-13.36,32.03-32.02,32.03-23.67,0-47.34,0-71.01,0-12.46,0-20.18,7.56-20.21,19.94-.05,23.77.03,47.55-.04,71.33-.02,5.35,1.63,10.04,4.74,14.26,5.16,7,12.41,10.96,20.46,13.54,14.89,4.77,30.16,5.12,45.53,3.3,9.42-1.12,18.49-3.53,26.6-8.74,6.19-3.98,11.51-9.08,12.67-16.44,1.18-7.52.82-15.28,1.15-23.27h-61.72v-30.7Z"/>
    <path class="cls-1" d="M264.91,148.84c0,6.81-5.32,12.27-12.07,12.36-6.75.09-12.62-5.7-12.51-12.34.12-6.96,5.53-12.28,12.5-12.28,6.79,0,12.07,5.36,12.08,12.25Z"/>
    <path class="cls-1" d="M314.25,358.39c-7.04-.09-12.3-5.48-12.19-12.47.11-6.76,5.71-12.28,12.31-12.14,6.95.15,12.38,5.67,12.31,12.53-.07,6.62-5.77,12.16-12.42,12.08Z"/>
  </g>
  <g>
    <path class="cls-2" d="M213.69,437.69c0-1.52,1.26-2.78,2.78-2.78h6.24c5.05,0,8.54,3.68,8.54,8.17s-3.49,8.17-8.54,8.17h-.11c-1.45,0-2.6-1.15-2.6-2.6s1.15-2.6,2.6-2.6c1.6-.04,2.9-1.34,2.9-2.97s-1.34-2.97-2.97-2.97h-3.27v18.37c0,1.52-1.26,2.78-2.78,2.78s-2.78-1.26-2.78-2.78v-20.79Z"/>
    <path class="cls-2" d="M240.86,448.94l-8.24-9.84c-.48-.59-.63-1.19-.63-1.82,0-1.56,1.22-2.75,2.75-2.75.82,0,1.6.33,2.15,1l6.87,8.17,6.94-8.24c.48-.59,1.3-.93,2-.93,1.49,0,2.6,1.19,2.6,2.6,0,.67-.19,1.19-.59,1.67l-8.28,9.87v9.8c0,1.52-1.26,2.78-2.78,2.78s-2.78-1.26-2.78-2.78v-9.54Z"/>
    <path class="cls-2" d="M263.13,440.1h-4.12c-1.45,0-2.6-1.15-2.6-2.6s1.15-2.6,2.6-2.6h13.81c1.45,0,2.6,1.15,2.6,2.6s-1.15,2.6-2.6,2.6h-4.12v18.37c0,1.52-1.26,2.78-2.78,2.78s-2.78-1.26-2.78-2.78v-18.37Z"/>
    <path class="cls-2" d="M278.01,437.32c0-1.52,1.26-2.78,2.78-2.78s2.78,1.26,2.78,2.78v7.98h8.91v-7.98c0-1.52,1.26-2.78,2.78-2.78s2.78,1.26,2.78,2.78v21.16c0,1.52-1.26,2.78-2.78,2.78s-2.78-1.26-2.78-2.78v-7.98h-8.91v7.98c0,1.52-1.26,2.78-2.78,2.78s-2.78-1.26-2.78-2.78v-21.16Z"/>
    <path class="cls-2" d="M301.76,447.9c0-7.46,5.9-13.36,13.4-13.36s13.4,5.9,13.4,13.36-5.9,13.36-13.4,13.36-13.4-5.9-13.4-13.36ZM322.81,447.9c0-4.45-3.38-7.98-7.65-7.98s-7.65,3.53-7.65,7.98,3.38,7.98,7.65,7.98,7.65-3.53,7.65-7.98Z"/>
    <path class="cls-2" d="M332.27,437.47c0-1.63,1.26-2.93,2.9-2.93.93,0,1.78.44,2.23,1l10.28,12.29v-10.5c0-1.52,1.26-2.78,2.78-2.78s2.78,1.26,2.78,2.78v21.16c0,1.52-1.26,2.78-2.78,2.78s-2.78-1.26-2.78-2.78v-2l-9.84-11.73v13.73c0,1.52-1.26,2.78-2.78,2.78s-2.78-1.26-2.78-2.78v-21.01Z"/>
  </g>
</svg>