<?xml version="1.0" encoding="UTF-8"?>
<svg id="Capa_1" data-name="Capa 1" xmlns="http://www.w3.org/2000/svg" viewBox="0 0 566.93 566.93">
  <defs>
    <style>
      .cls-1 {
        fill: #61DBFB;
      }

      .cls-1, .cls-2 {
        stroke-width: 0px;
      }

      .cls-2 {
        fill: #61DBFB;
      }
    </style>
  </defs>
  <g>
    <path class="cls-1" d="M439.89,241.32v9.78c-3.36,13.54-12.51,22.47-23.74,29.7-8.6,5.54-17.88,9.67-27.49,13.08-4.66,1.65-9.39,3.13-14.2,4.73.2.99.34,1.78.52,2.56,3.02,13.02,5.32,26.14,5.03,39.56-.21,9.53-1.55,18.87-5.99,27.49-6.28,12.2-18.6,18.8-31.72,17.14-7.25-.91-14.07-3.12-20.61-6.31-13.13-6.41-24.44-15.35-35.06-25.24-1.02-.95-2.06-1.87-2.99-2.7-5.93,5.02-11.45,9.99-17.29,14.56-10.32,8.07-21.36,14.91-34.21,18.29-20.4,5.37-36.23-3.48-42.37-23.66-1.97-6.48-2.75-13.14-2.85-19.88-.18-12.49,1.75-24.74,4.53-36.87.38-1.64.67-3.31,1.02-5.05-1.85-.58-3.38-1.08-4.93-1.55-10.72-3.29-21.17-7.26-30.97-12.75-13.62-7.64-25.42-16.97-29.53-33.11v-9.78c3.34-13.82,12.74-22.78,24.18-30.08,8.88-5.67,18.49-9.82,28.4-13.29,4.2-1.47,8.45-2.77,12.82-4.2-.17-.96-.28-1.75-.46-2.53-3.54-15.63-6.3-31.34-4.54-47.48.85-7.76,2.63-15.25,6.77-21.98,5.02-8.18,12.17-13.2,21.82-14.54,8.03-1.12,15.61.63,22.98,3.47,14.87,5.72,27.3,15.22,39.03,25.73,1.8,1.61,3.58,3.23,5.24,4.73,6.17-5.16,11.96-10.3,18.06-15.03,10.2-7.9,21.18-14.46,33.83-17.72,20.41-5.27,35.92,3.49,42.02,23.68,1.99,6.58,2.75,13.35,2.83,20.19.15,13.22-2.09,26.13-5.07,38.95-.19.84-.26,1.71-.39,2.59,1.28.4,2.24.71,3.2,1,11.02,3.34,21.82,7.26,31.91,12.86,13.91,7.73,26.09,17.09,30.22,33.64ZM254.89,295.5c19.12,1.47,38.11,1.48,57.17,0,10.76-15.75,20.28-32.16,28.5-49.35-8.3-17.33-17.8-33.73-28.52-49.3-19.27-1.56-38.25-1.6-57.2.02-10.8,15.77-20.29,32.09-28.48,49.3,8.27,17.25,17.79,33.66,28.52,49.34ZM247.29,183.64c8.89-11.02,17.62-21.85,26.47-32.82-.16-.2-.44-.62-.79-.96-7.74-7.41-15.91-14.28-25.01-19.97-6.58-4.12-13.47-7.56-21.16-9.18-11.55-2.43-20.04,2.12-23.67,13.27-1.43,4.4-2.23,9.1-2.61,13.72-.78,9.58.19,19.12,1.93,28.55.88,4.75,2,9.46,2.95,13.86,14.31-2.21,28.16-4.35,41.89-6.47ZM371.1,206.74c-5.22,13.41-10.29,26.45-15.34,39.43,5.05,12.95,10.14,25.98,15.28,39.15.32-.03.84,0,1.31-.13,12.62-3.69,24.9-8.23,36.11-15.25,5.73-3.58,11.03-7.7,14.81-13.43,4.58-6.94,4.69-14.06-.15-20.79-2.46-3.42-5.51-6.59-8.83-9.18-12.81-10-27.84-15.28-43.19-19.81ZM293.1,341.6c7.33,7.18,15.3,13.94,24.1,19.69,7.28,4.75,14.91,8.76,23.56,10.44,10.93,2.13,18.98-2.08,22.67-12.59,1.63-4.64,2.55-9.65,2.96-14.56.89-10.61-.43-21.14-2.48-31.55-.74-3.73-1.68-7.42-2.46-10.8-14.32,2.21-28.17,4.35-41.84,6.47-8.78,10.9-17.58,21.82-26.51,32.91ZM195.89,206.92c-.14.02-.53.02-.9.12-12.76,3.63-25.11,8.22-36.43,15.26-5.82,3.63-11.21,7.79-15.01,13.65-4.37,6.75-4.64,13.73.06,20.26,2.69,3.74,6.06,7.17,9.68,10.03,9.62,7.58,20.83,12.17,32.32,16.1,3.43,1.17,6.92,2.19,10.22,3.22,5.22-13.42,10.29-26.46,15.33-39.41-5.05-12.99-10.13-26.03-15.26-39.24ZM273.9,341.67c-9.17-11.39-18.03-22.38-26.57-32.99-14.07-2.18-27.81-4.3-41.71-6.45-.06.15-.24.51-.34.89-3.57,13.97-5.82,28.12-4.71,42.57.35,4.51,1.36,9.08,2.86,13.35,3.51,9.97,10.32,14.01,20.8,12.92,1.51-.16,3.02-.49,4.48-.91,18.14-5.18,31.82-17.15,45.19-29.38ZM361.44,190.07c3.68-14.28,5.99-28.8,4.95-43.67-.4-5.69-1.55-11.29-4.27-16.42-3.73-7.01-9.58-10.4-17.5-9.73-3.11.26-6.26.86-9.24,1.81-11.04,3.52-20.43,9.97-29.32,17.17-4.56,3.69-8.88,7.7-13.07,11.36,9.11,11.31,17.91,22.23,26.61,33.05,13.82,2.13,27.67,4.26,41.83,6.43ZM283.63,160.45c-6.67,7.24-12.63,14.31-18.34,21.93h36.69c-6.31-7.55-12.18-14.56-18.35-21.93ZM218.93,261.83c-3.4,9.33-6.58,18.02-9.96,27.3,9.92,1.7,19.07,3.27,28.6,4.91-6.24-10.79-12.22-21.11-18.64-32.21ZM301.61,310.36c-.13-.2-.26-.41-.39-.61h-36.41c6.37,7.61,12.32,14.73,18.64,22.29,6.32-7.54,12.24-14.61,18.16-21.68ZM208.94,203.21c3.44,9.36,6.62,18.04,10,27.24,6.36-11,12.31-21.3,18.63-32.22-9.63,1.67-18.7,3.25-28.64,4.98ZM347.82,230.19c3.74-9.01,7.1-17.64,9.83-27.05-9.59-1.66-18.69-3.23-28.31-4.89,6.35,10.98,12.28,21.23,18.48,31.94ZM329.33,294.08c9.7-1.69,18.84-3.29,28.64-4.99-3.42-9.31-6.6-17.98-9.99-27.2-6.36,10.99-12.33,21.29-18.65,32.2Z"/>
    <path class="cls-1" d="M311.52,246.19c.01,15.29-12.64,27.99-27.97,28.06-15.38.07-28.26-12.83-28.14-28.19.12-15.35,12.82-27.96,28.12-27.91,15.32.05,27.98,12.73,27.99,28.03Z"/>
  </g>
  <g>
    <path class="cls-2" d="M160.75,436.47c0-1.52,1.26-2.78,2.78-2.78h6.61c5.05,0,8.54,3.68,8.54,8.17,0,3.53-2.04,5.83-4.08,6.64l-.19.07,5.79,6.9c.48.59.63,1.19.63,1.82,0,1.56-1.23,2.75-2.75,2.75-.82,0-1.6-.33-2.15-1l-8.02-9.54c-.41-.48-.85-1.19-.85-2.15,0-1.41,1.11-2.52,2.49-2.52h.41c1.63,0,2.97-1.34,2.97-2.97s-1.34-2.97-2.97-2.97h-3.64v18.37c0,1.52-1.26,2.78-2.78,2.78s-2.78-1.26-2.78-2.78v-20.79Z"/>
    <path class="cls-2" d="M183.38,436.47c0-1.52,1.26-2.78,2.78-2.78h9.5c1.45,0,2.6,1.15,2.6,2.6s-1.15,2.6-2.6,2.6h-6.72v5.2h6.72c1.45,0,2.6,1.15,2.6,2.6s-1.15,2.6-2.6,2.6h-6.72v5.2h6.72c1.45,0,2.6,1.15,2.6,2.6s-1.15,2.6-2.6,2.6h-9.5c-1.52,0-2.78-1.26-2.78-2.78v-20.42Z"/>
    <path class="cls-2" d="M218.61,434.43c.67-.82,1.48-1.11,2.23-1.11,1.52,0,2.78,1.26,2.78,2.78v21.16c0,1.52-1.26,2.78-2.78,2.78s-2.78-1.26-2.78-2.78v-2.04h-3.42c-1.45,0-2.6-1.15-2.6-2.6s1.15-2.6,2.6-2.6h3.42v-6.79l-13.33,15.89c-.44.52-1.3.93-2,.93-1.45,0-2.6-1.15-2.6-2.6,0-.56.11-1.08.59-1.67l17.89-21.34Z"/>
    <path class="cls-2" d="M227.33,446.68c0-7.46,5.9-13.36,13.4-13.36,3.9,0,7.28,1.6,9.54,3.93.48.52.74,1.26.74,1.89,0,1.52-1.26,2.75-2.78,2.75-.74,0-1.49-.41-2.23-1.08-1.37-1.26-3.12-2.12-5.27-2.12-4.27,0-7.65,3.53-7.65,7.98s3.38,7.98,7.65,7.98c2.15,0,3.9-.85,5.27-2.12.74-.67,1.48-1.08,2.23-1.08,1.52,0,2.78,1.22,2.78,2.75,0,.63-.26,1.37-.74,1.89-2.26,2.34-5.64,3.93-9.54,3.93-7.5,0-13.4-5.9-13.4-13.36Z"/>
    <path class="cls-2" d="M259.21,438.88h-4.12c-1.45,0-2.6-1.15-2.6-2.6s1.15-2.6,2.6-2.6h13.81c1.45,0,2.6,1.15,2.6,2.6s-1.15,2.6-2.6,2.6h-4.12v18.37c0,1.52-1.26,2.78-2.78,2.78s-2.78-1.26-2.78-2.78v-18.37Z"/>
    <path class="cls-2" d="M283.37,436.25c0-1.63,1.26-2.93,2.9-2.93.93,0,1.78.44,2.23,1l10.28,12.29v-10.5c0-1.52,1.26-2.78,2.78-2.78s2.78,1.26,2.78,2.78v21.16c0,1.52-1.26,2.78-2.78,2.78s-2.78-1.26-2.78-2.78v-2l-9.84-11.73v13.73c0,1.52-1.26,2.78-2.78,2.78s-2.78-1.26-2.78-2.78v-21.01Z"/>
    <path class="cls-2" d="M325.98,434.43c.67-.82,1.48-1.11,2.23-1.11,1.52,0,2.78,1.26,2.78,2.78v21.16c0,1.52-1.26,2.78-2.78,2.78s-2.78-1.26-2.78-2.78v-2.04h-3.42c-1.45,0-2.6-1.15-2.6-2.6s1.15-2.6,2.6-2.6h3.42v-6.79l-13.33,15.89c-.44.52-1.3.93-2,.93-1.45,0-2.6-1.15-2.6-2.6,0-.56.11-1.08.59-1.67l17.89-21.34Z"/>
    <path class="cls-2" d="M340.3,438.88h-4.12c-1.45,0-2.6-1.15-2.6-2.6s1.15-2.6,2.6-2.6h13.81c1.45,0,2.6,1.15,2.6,2.6s-1.15,2.6-2.6,2.6h-4.12v18.37c0,1.52-1.26,2.78-2.78,2.78s-2.78-1.26-2.78-2.78v-18.37Z"/>
    <path class="cls-2" d="M355.19,436.1c0-1.52,1.26-2.78,2.78-2.78s2.78,1.26,2.78,2.78v21.16c0,1.52-1.26,2.78-2.78,2.78s-2.78-1.26-2.78-2.78v-21.16Z"/>
    <path class="cls-2" d="M365.21,436.1c0-1.52,1.26-2.78,2.78-2.78s2.78,1.26,2.78,2.78v14.03l13.33-15.89c.48-.59,1.3-.93,2-.93,1.45,0,2.6,1.15,2.6,2.6,0,.56-.11,1.08-.59,1.67l-17.89,21.34c-.67.82-1.48,1.11-2.23,1.11-1.52,0-2.78-1.26-2.78-2.78v-21.16Z"/>
    <path class="cls-2" d="M391.3,436.47c0-1.52,1.26-2.78,2.78-2.78h9.5c1.45,0,2.6,1.15,2.6,2.6s-1.15,2.6-2.6,2.6h-6.72v5.2h6.72c1.45,0,2.6,1.15,2.6,2.6s-1.15,2.6-2.6,2.6h-6.72v5.2h6.72c1.45,0,2.6,1.15,2.6,2.6s-1.15,2.6-2.6,2.6h-9.5c-1.52,0-2.78-1.26-2.78-2.78v-20.42Z"/>
  </g>
</svg>