<?xml version="1.0" encoding="UTF-8"?>
<svg id="Capa_1" data-name="Capa 1" xmlns="http://www.w3.org/2000/svg" version="1.1" viewBox="0 0 283.46 283.46">
  <defs>
    <style>
      .cls-1 {
        fill: #FFFFFF;
        stroke-width: 0px;
      }
    </style>
  </defs>
  <g>
    <path class="cls-1" d="M37.05,196.69v-14.35c0-.86.68-1.54,1.5-1.54s1.53.68,1.53,1.54v14.52c0,4.21,2.71,6.75,6.14,6.75s6.17-2.53,6.17-6.75v-14.52c0-.86.68-1.54,1.5-1.54s1.54.68,1.54,1.54v14.35c0,5.89-4.07,9.74-9.21,9.74s-9.17-3.86-9.17-9.74Z"/>
    <path class="cls-1" d="M60.27,182.41c0-.89.68-1.61,1.57-1.61.5,0,.96.25,1.21.57l12.99,15.49v-14.52c0-.86.68-1.54,1.53-1.54s1.5.68,1.5,1.54v22.48c0,.82-.68,1.53-1.5,1.53s-1.53-.71-1.53-1.53v-3.25l-12.74-15.2v18.45c0,.82-.68,1.53-1.53,1.53s-1.5-.71-1.5-1.53v-22.41Z"/>
    <path class="cls-1" d="M101.39,181.41c.39-.43.82-.61,1.25-.61.82,0,1.5.68,1.5,1.54v22.48c0,.82-.68,1.53-1.5,1.53s-1.53-.71-1.53-1.53v-4.96h-6.42c-.79,0-1.39-.61-1.39-1.39s.61-1.43,1.39-1.43h6.42v-10.88l-16.45,19.66c-.25.29-.71.54-1.11.54-.78,0-1.43-.64-1.43-1.43,0-.32.07-.61.36-.93l18.92-22.59Z"/>
    <path class="cls-1" d="M109.01,182.34c0-.86.68-1.54,1.5-1.54s1.53.68,1.53,1.54v22.48c0,.82-.68,1.53-1.53,1.53s-1.5-.71-1.5-1.53v-22.48Z"/>
    <path class="cls-1" d="M143,181.41c.39-.43.82-.61,1.25-.61.82,0,1.5.68,1.5,1.54v22.48c0,.82-.68,1.53-1.5,1.53s-1.53-.71-1.53-1.53v-4.96h-6.42c-.78,0-1.39-.61-1.39-1.39s.61-1.43,1.39-1.43h6.42v-10.88l-16.45,19.66c-.25.29-.71.54-1.11.54-.79,0-1.43-.64-1.43-1.43,0-.32.07-.61.36-.93l18.91-22.59Z"/>
    <path class="cls-1" d="M150.61,182.34c0-.86.68-1.54,1.5-1.54s1.53.68,1.53,1.54v20.91h8.6c.78,0,1.39.61,1.39,1.39s-.61,1.43-1.39,1.43h-10.14c-.82,0-1.5-.68-1.5-1.53v-22.2Z"/>
    <path class="cls-1" d="M166.72,182.59c0-.82.68-1.5,1.5-1.5h10.14c.78,0,1.39.61,1.39,1.39s-.61,1.43-1.39,1.43h-8.6v8.25h8.6c.78,0,1.39.64,1.39,1.43s-.61,1.39-1.39,1.39h-8.6v9.85c0,.82-.68,1.53-1.53,1.53s-1.5-.71-1.5-1.53v-22.24Z"/>
    <path class="cls-1" d="M195.45,181.41c.39-.43.82-.61,1.25-.61.82,0,1.5.68,1.5,1.54v22.48c0,.82-.68,1.53-1.5,1.53s-1.53-.71-1.53-1.53v-4.96h-6.42c-.78,0-1.39-.61-1.39-1.39s.61-1.43,1.39-1.43h6.42v-10.88l-16.45,19.66c-.25.29-.71.54-1.11.54-.79,0-1.43-.64-1.43-1.43,0-.32.07-.61.36-.93l18.91-22.59Z"/>
    <path class="cls-1" d="M203.07,182.59c0-.82.68-1.5,1.5-1.5h5.78c4.53,0,7.5,3.18,7.5,7.14,0,3.46-2.28,6-5.36,6.39l-.71.03,7.71,9.21c.29.32.36.64.36,1,0,.82-.68,1.5-1.5,1.5-.46,0-.86-.18-1.18-.57l-9-10.71c-.21-.25-.46-.68-.46-1.18,0-.78.61-1.39,1.36-1.39h1.18c2.71,0,4.46-1.89,4.46-4.29s-1.75-4.32-4.46-4.32h-4.14v20.92c0,.82-.68,1.53-1.53,1.53s-1.5-.71-1.5-1.53v-22.24Z"/>
    <path class="cls-1" d="M221,193.58c0-7.18,5.6-12.85,12.7-12.85s12.71,5.67,12.71,12.85-5.6,12.85-12.71,12.85-12.7-5.68-12.7-12.85ZM243.3,193.58c0-5.57-4.25-9.96-9.6-9.96s-9.56,4.39-9.56,9.96,4.21,9.92,9.56,9.92,9.6-4.39,9.6-9.92Z"/>
  </g>
  <g>
    <path class="cls-1" d="M141.25,115.87c2.51,0,4.55-2.04,4.55-4.55v-29.68c0-2.57-2.04-4.61-4.61-4.61s-4.5,2.04-4.5,4.61v29.68c0,2.51,2.04,4.55,4.55,4.55h0Z"/>
    <path class="cls-1" d="M188.34,77.25c-1.28,0-2.57.54-3.75,1.82l-48.65,58.1c-4.4,5.26-10.92,8.31-17.78,8.33,0,0,0,0,0,0-10.29,0-18.43-7.61-18.43-20.25v-43.61c0-2.57-2.04-4.61-4.61-4.61s-4.5,2.04-4.5,4.61v43.07c0,17.68,12.57,29.57,27.99,29.57.1,0,.08,0,2.58-.08,6.65-.21,12.9-3.25,17.16-8.36l46.03-54.62-.65,34.78h-19.28c-2.36,0-4.18,1.93-4.18,4.29s1.82,4.18,4.18,4.18h19.28v14.89c0,2.46,2.04,4.61,4.61,4.61s4.5-2.14,4.5-4.61v-67.5c0-2.57-2.04-4.61-4.5-4.61Z"/>
  </g>
</svg>