<?xml version="1.0" encoding="UTF-8"?>
<svg id="Capa_1" data-name="Capa 1" xmlns="http://www.w3.org/2000/svg" viewBox="0 0 77.13 96.28">
  <defs>
    <style>
      .cls-1 {
        fill: #604696;
        stroke-width: 0px;
      }
    </style>
  </defs>
  <path class="cls-1" d="M48.14,88.53c-22.27,0-40.39-18.12-40.39-40.39S25.87,7.75,48.14,7.75c4.23,0,8.44.67,12.45,1.97-11.96,9.02-19.14,23.15-19.14,38.42s7.18,29.41,19.14,38.42c-4,1.29-8.22,1.97-12.45,1.97M48.14,0C21.6,0,0,21.6,0,48.14s21.6,48.14,48.14,48.14c7.84,0,15.64-1.94,22.54-5.61l6.44-3.43-6.44-3.42c-13.25-7.03-21.48-20.71-21.48-35.69s8.23-28.66,21.48-35.69l6.44-3.43-6.44-3.42C63.78,1.94,55.98,0,48.14,0"/>
</svg>